<svg id="Layer_1" data-name="Layer 1" xmlns="http://www.w3.org/2000/svg" viewBox="0 0 18 18"><title>recommendation</title><path class="cls-1" d="M12,3a9,9,0,1,0,9,9A9,9,0,0,0,12,3Zm4.13,13a0.56,0.56,0,0,1-.77.19c-2.11-1.29-4.77-1.58-7.91-.87a0.56,0.56,0,1,1-.25-1.09c3.43-.78,6.37-0.45,8.74,1A0.56,0.56,0,0,1,16.13,16Zm1.1-2.45a0.7,0.7,0,0,1-1,.23,11.81,11.81,0,0,0-9-1,0.7,0.7,0,1,1-.41-1.34A13.13,13.13,0,0,1,17,12.57,0.7,0.7,0,0,1,17.23,13.53ZM17.32,11c-2.9-1.72-7.69-1.88-10.46-1a0.84,0.84,0,1,1-.49-1.61c3.18-1,8.46-.78,11.8,1.2A0.84,0.84,0,0,1,17.32,11Z" transform="translate(-3 -3)"/></svg>
